<svg width="503" height="565" viewBox="0 0 503 565" fill="none" xmlns="http://www.w3.org/2000/svg">
<path d="M26.193 516.807C27.3849 513.11 32.6151 513.11 33.807 516.807L36.6857 525.735C37.0806 526.959 38.0405 527.919 39.2652 528.314L48.1931 531.193C51.8897 532.385 51.8897 537.615 48.1931 538.807L39.2652 541.686C38.0405 542.081 37.0806 543.041 36.6857 544.265L33.807 553.193C32.6151 556.89 27.3849 556.89 26.193 553.193L23.3143 544.265C22.9194 543.041 21.9595 542.081 20.7348 541.686L11.8069 538.807C8.11027 537.615 8.11026 532.385 11.8069 531.193L20.7348 528.314C21.9595 527.919 22.9194 526.959 23.3143 525.735L26.193 516.807Z" fill="#FCEBC0"/>
<path d="M403.193 345.807C404.385 342.11 409.615 342.11 410.807 345.807L413.686 354.735C414.081 355.959 415.041 356.919 416.265 357.314L425.193 360.193C428.89 361.385 428.89 366.615 425.193 367.807L416.265 370.686C415.041 371.081 414.081 372.041 413.686 373.265L410.807 382.193C409.615 385.89 404.385 385.89 403.193 382.193L400.314 373.265C399.919 372.041 398.959 371.081 397.735 370.686L388.807 367.807C385.11 366.615 385.11 361.385 388.807 360.193L397.735 357.314C398.959 356.919 399.919 355.959 400.314 354.735L403.193 345.807Z" fill="#FCEBC0"/>
<path d="M56.193 43.8069C57.3849 40.1103 62.6151 40.1103 63.807 43.8069L66.6857 52.7348C67.0806 53.9595 68.0405 54.9194 69.2652 55.3143L78.1931 58.193C81.8897 59.3849 81.8897 64.6151 78.1931 65.807L69.2652 68.6857C68.0405 69.0806 67.0806 70.0405 66.6857 71.2652L63.807 80.1931C62.6151 83.8897 57.3849 83.8897 56.193 80.1931L53.3143 71.2652C52.9194 70.0405 51.9595 69.0806 50.7348 68.6857L41.8069 65.807C38.1103 64.6151 38.1103 59.3849 41.8069 58.193L50.7348 55.3143C51.9595 54.9194 52.9194 53.9595 53.3143 52.7348L56.193 43.8069Z" fill="#FCEBC0"/>
<path d="M503 106C503 164.542 455.542 212 397 212C338.458 212 291 164.542 291 106C291 47.4578 338.458 0 397 0C455.542 0 503 47.4578 503 106Z" fill="#FCEBC0"/>
<path d="M352.043 91.5642C352.043 99.3091 345.764 105.588 338.02 105.588C330.275 105.588 323.996 99.3091 323.996 91.5642C323.996 83.8193 330.275 77.5409 338.02 77.5409C345.764 77.5409 352.043 83.8193 352.043 91.5642Z" fill="#C6C0B2"/>
<path d="M404.837 49.4942C404.837 57.239 398.558 63.5175 390.813 63.5175C383.068 63.5175 376.79 57.239 376.79 49.4942C376.79 41.7493 383.068 35.4708 390.813 35.4708C398.558 35.4708 404.837 41.7493 404.837 49.4942Z" fill="#C6C0B2"/>
<path d="M390.813 153.019C390.813 163.726 382.134 172.405 371.428 172.405C360.722 172.405 352.043 163.726 352.043 153.019C352.043 142.313 360.722 133.634 371.428 133.634C382.134 133.634 390.813 142.313 390.813 153.019Z" fill="#C6C0B2"/>
</svg>
