<svg width="1366" height="1097" viewBox="0 0 1366 1097" fill="none" xmlns="http://www.w3.org/2000/svg">
<path d="M1222.19 11.8069C1223.38 8.11027 1228.62 8.11026 1229.81 11.8069L1232.69 20.7348C1233.08 21.9595 1234.04 22.9194 1235.27 23.3143L1244.19 26.193C1247.89 27.3849 1247.89 32.6151 1244.19 33.807L1235.27 36.6857C1234.04 37.0806 1233.08 38.0405 1232.69 39.2652L1229.81 48.1931C1228.62 51.8897 1223.38 51.8897 1222.19 48.1931L1219.31 39.2652C1218.92 38.0405 1217.96 37.0806 1216.73 36.6857L1207.81 33.807C1204.11 32.6151 1204.11 27.3849 1207.81 26.193L1216.73 23.3143C1217.96 22.9194 1218.92 21.9595 1219.31 20.7348L1222.19 11.8069Z" fill="#FCEBC0"/>
<path d="M66.193 883.807C67.3849 880.11 72.6151 880.11 73.807 883.807L76.6857 892.735C77.0806 893.959 78.0405 894.919 79.2652 895.314L88.1931 898.193C91.8897 899.385 91.8897 904.615 88.1931 905.807L79.2652 908.686C78.0405 909.081 77.0806 910.041 76.6857 911.265L73.807 920.193C72.6151 923.89 67.3849 923.89 66.193 920.193L63.3143 911.265C62.9194 910.041 61.9595 909.081 60.7348 908.686L51.8069 905.807C48.1103 904.615 48.1103 899.385 51.8069 898.193L60.7348 895.314C61.9595 894.919 62.9194 893.959 63.3143 892.735L66.193 883.807Z" fill="#FCEBC0"/>
<path d="M176.193 89.8069C177.385 86.1103 182.615 86.1103 183.807 89.8069L185.467 94.9539C185.861 96.1786 186.821 97.1385 188.046 97.5334L193.193 99.193C196.89 100.385 196.89 105.615 193.193 106.807L188.046 108.467C186.821 108.861 185.861 109.821 185.467 111.046L183.807 116.193C182.615 119.89 177.385 119.89 176.193 116.193L174.533 111.046C174.139 109.821 173.179 108.861 171.954 108.467L166.807 106.807C163.11 105.615 163.11 100.385 166.807 99.193L171.954 97.5334C173.179 97.1385 174.139 96.1786 174.533 94.9539L176.193 89.8069Z" fill="#FCEBC0"/>
<path d="M697.193 151.807C698.385 148.11 703.615 148.11 704.807 151.807L706.467 156.954C706.861 158.179 707.821 159.139 709.046 159.533L714.193 161.193C717.89 162.385 717.89 167.615 714.193 168.807L709.046 170.467C707.821 170.861 706.861 171.821 706.467 173.046L704.807 178.193C703.615 181.89 698.385 181.89 697.193 178.193L695.533 173.046C695.139 171.821 694.179 170.861 692.954 170.467L687.807 168.807C684.11 167.615 684.11 162.385 687.807 161.193L692.954 159.533C694.179 159.139 695.139 158.179 695.533 156.954L697.193 151.807Z" fill="#FCEBC0"/>
<path d="M1294.81 814.807C1293.62 811.11 1288.38 811.11 1287.19 814.807L1285.53 819.954C1285.14 821.179 1284.18 822.139 1282.95 822.533L1277.81 824.193C1274.11 825.385 1274.11 830.615 1277.81 831.807L1282.95 833.467C1284.18 833.861 1285.14 834.821 1285.53 836.046L1287.19 841.193C1288.38 844.89 1293.62 844.89 1294.81 841.193L1296.47 836.046C1296.86 834.821 1297.82 833.861 1299.05 833.467L1304.19 831.807C1307.89 830.615 1307.89 825.385 1304.19 824.193L1299.05 822.533C1297.82 822.139 1296.86 821.179 1296.47 819.954L1294.81 814.807Z" fill="#FCEBC0"/>
<path d="M789.807 1058.81C788.615 1055.11 783.385 1055.11 782.193 1058.81L780.533 1063.95C780.139 1065.18 779.179 1066.14 777.954 1066.53L772.807 1068.19C769.11 1069.38 769.11 1074.62 772.807 1075.81L777.954 1077.47C779.179 1077.86 780.139 1078.82 780.533 1080.05L782.193 1085.19C783.385 1088.89 788.615 1088.89 789.807 1085.19L791.467 1080.05C791.861 1078.82 792.821 1077.86 794.046 1077.47L799.193 1075.81C802.89 1074.62 802.89 1069.38 799.193 1068.19L794.046 1066.53C792.821 1066.14 791.861 1065.18 791.467 1063.95L789.807 1058.81Z" fill="#FCEBC0"/>
<path d="M28.807 500.807C27.6151 497.11 22.3849 497.11 21.193 500.807L19.5334 505.954C19.1385 507.179 18.1786 508.139 16.9539 508.533L11.8069 510.193C8.11026 511.385 8.11026 516.615 11.8069 517.807L16.9539 519.467C18.1786 519.861 19.1385 520.821 19.5334 522.046L21.193 527.193C22.3849 530.89 27.6151 530.89 28.807 527.193L30.4666 522.046C30.8615 520.821 31.8214 519.861 33.0461 519.467L38.1931 517.807C41.8897 516.615 41.8897 511.385 38.1931 510.193L33.0461 508.533C31.8214 508.139 30.8615 507.179 30.4666 505.954L28.807 500.807Z" fill="#FCEBC0"/>
<path d="M1344.81 443.807C1343.62 440.11 1338.38 440.11 1337.19 443.807L1335.53 448.954C1335.14 450.179 1334.18 451.139 1332.95 451.533L1327.81 453.193C1324.11 454.385 1324.11 459.615 1327.81 460.807L1332.95 462.467C1334.18 462.861 1335.14 463.821 1335.53 465.046L1337.19 470.193C1338.38 473.89 1343.62 473.89 1344.81 470.193L1346.47 465.046C1346.86 463.821 1347.82 462.861 1349.05 462.467L1354.19 460.807C1357.89 459.615 1357.89 454.385 1354.19 453.193L1349.05 451.533C1347.82 451.139 1346.86 450.179 1346.47 448.954L1344.81 443.807Z" fill="#FCEBC0"/>
</svg>
