<svg width="566" height="340" viewBox="0 0 566 340" fill="none" xmlns="http://www.w3.org/2000/svg">
<rect width="566" height="340" rx="10" fill="url(#paint0_linear)"/>
<mask id="mask0" mask-type="alpha" maskUnits="userSpaceOnUse" x="83" y="0" width="483" height="340">
<rect x="83" width="483" height="340" rx="10" fill="url(#paint1_linear)"/>
</mask>
<g mask="url(#mask0)">
<path d="M651.128 147.946C651.128 82.2623 600.168 29.6029 533.917 29.6029C467.666 29.6029 413.872 82.8302 413.872 149.082C413.872 187.019 432.559 220.428 459.169 242.512L465.963 288.378C465.963 295.74 467.661 300.272 475.022 300.272C475.022 300.272 477.288 300.272 480.117 300.272C482.946 300.272 485.212 297.443 485.212 292.911C485.212 288.378 488.609 284.982 493.141 284.982C497.674 284.982 501.07 289.514 501.07 293.473C501.07 297.438 506.165 301.403 512.396 301.403C518.627 301.403 523.722 298.006 523.722 293.473C523.722 288.941 527.686 285.544 532.781 285.544C537.876 285.544 541.841 288.941 541.841 293.473C541.841 298.006 546.936 301.403 553.166 301.403C559.397 301.403 564.492 298.006 564.492 293.473C564.492 288.941 567.889 285.544 572.421 285.544C576.954 285.544 580.35 288.373 580.35 292.905C580.35 297.438 582.617 300.267 585.445 300.267H590.54C597.901 300.267 600.168 295.734 600.168 288.373L604.7 243.075C633.571 220.996 651.128 187.019 651.128 147.946ZM481.821 206.836C459.737 206.836 442.186 188.717 442.186 167.201C442.186 160.408 443.885 154.745 446.719 149.082C448.417 145.685 454.648 145.685 454.648 145.685L515.236 151.348C515.236 151.348 518.064 151.916 519.2 153.614C520.331 158.147 521.466 162.674 521.466 167.206C521.456 189.285 503.904 206.836 481.821 206.836ZM540.71 247.039C537.314 247.039 533.917 244.773 532.219 241.376C530.52 244.773 527.686 247.039 523.727 247.039C518.064 247.039 513.537 241.944 513.537 235.713C513.537 233.447 514.668 230.618 515.803 228.92C515.803 228.92 519.768 224.955 524.295 219.86C528.828 214.765 536.189 214.765 540.716 219.86L548.645 228.92C550.343 230.618 550.911 232.885 550.911 235.713C550.9 241.944 546.373 247.039 540.71 247.039ZM588.274 207.972C566.19 207.972 548.639 189.853 548.639 168.337C548.639 163.242 549.77 159.277 550.906 154.745C551.474 152.478 554.302 151.916 554.302 151.916L614.89 146.253C614.89 146.253 621.121 145.685 622.819 149.65C625.648 155.313 627.352 160.976 627.914 168.337C627.909 190.415 609.79 207.972 588.274 207.972ZM628.66 53.0335C636.941 61.4549 643.945 70.8607 649.635 80.975L664.509 66.101C676.516 78.1084 695.982 78.1084 707.995 66.101C720.002 54.0936 720.002 34.6276 707.995 22.6148C701.461 16.0865 692.737 13.2306 684.191 13.8094C684.764 5.26358 681.914 -3.46612 675.38 -9.99446C663.373 -22.0018 643.907 -22.0018 631.895 -9.99446C619.888 2.01293 619.888 21.479 631.895 33.4918L620.196 45.1908C623.111 47.6735 625.945 50.275 628.66 53.0335ZM664.509 264.899L635.302 235.692C630.608 241.247 625.431 246.444 619.796 251.237L616.691 282.304L631.895 297.508C619.888 309.516 619.888 328.987 631.895 340.994C643.902 353.002 663.368 353.002 675.38 340.994C681.914 334.461 684.759 325.736 684.186 317.191C692.731 317.764 701.461 314.914 707.989 308.385C719.996 296.378 719.996 276.912 707.989 264.899C695.982 252.892 676.516 252.892 664.509 264.899ZM400.491 66.101L416.03 81.6403C421.958 71.3853 429.254 61.8335 437.886 53.2553C440.412 50.7456 443.035 48.3874 445.718 46.1049L433.105 33.4918C445.112 21.4844 445.112 2.01834 433.105 -9.99446C421.098 -22.0018 401.632 -22.0018 389.62 -9.99446C383.086 -3.46071 380.236 5.26358 380.809 13.8094C372.263 13.236 363.534 16.0865 357.005 22.6148C344.998 34.6222 344.998 54.0936 357.005 66.101C369.013 78.1084 388.484 78.1084 400.491 66.101ZM444.361 250.642C439.114 245.909 434.279 240.852 429.86 235.53L400.491 264.899C388.484 252.892 369.018 252.892 357.005 264.899C344.998 276.906 344.998 296.372 357.005 308.385C363.534 314.914 372.263 317.769 380.809 317.191C380.236 325.736 383.086 334.466 389.614 340.994C401.621 353.002 421.093 353.002 433.1 340.994C445.107 328.987 445.107 309.521 433.1 297.508L448.953 281.655L444.361 250.642Z" stroke="#2E2A4A" stroke-miterlimit="10"/>
</g>
<defs>
<linearGradient id="paint0_linear" x1="560.67" y1="2.0606" x2="-16.156" y2="309.708" gradientUnits="userSpaceOnUse">
<stop stop-color="#484170"/>
<stop offset="1" stop-color="#333050"/>
</linearGradient>
<linearGradient id="paint1_linear" x1="566" y1="1.58671e-05" x2="37.5133" y2="239.72" gradientUnits="userSpaceOnUse">
<stop stop-color="#484170"/>
<stop offset="1" stop-color="#333050"/>
</linearGradient>
</defs>
</svg>
