<svg width="60" height="60" viewBox="0 0 60 60" fill="none" xmlns="http://www.w3.org/2000/svg">
<path d="M30 60C13.4483 60 0 46.523 0 30C0 13.4483 13.4483 0 30 0C46.5517 0 60 13.4483 60 30C60 46.523 46.523 60 30 60ZM30 1.63793C14.3678 1.63793 1.63793 14.3678 1.63793 30C1.63793 45.6322 14.3678 58.3621 30 58.3621C45.6322 58.3621 58.3621 45.6322 58.3621 30C58.3621 14.3678 45.6322 1.63793 30 1.63793Z" fill="#4B4575"/>
<path d="M29.885 59.6839C29.4827 59.6839 29.1379 59.3965 29.0804 58.9942C28.9942 58.5632 29.3103 58.1322 29.7413 58.0459C41.293 56.0632 49.9999 43.9942 49.9999 29.9712C49.9999 16.1494 41.7815 4.39652 30.4884 2.0402C30.0574 1.95399 29.77 1.52296 29.8563 1.06319C29.9425 0.632154 30.3735 0.344797 30.8333 0.431004C42.9022 2.95974 51.6379 15.4023 51.6379 29.9712C51.6379 44.7701 42.3563 57.5574 30.0287 59.6551C29.9712 59.6839 29.9425 59.6839 29.885 59.6839Z" fill="#4B4575"/>
<path d="M30 59.6839C29.9426 59.6839 29.9138 59.6839 29.8564 59.6839C17.5862 57.5575 8.33337 44.7988 8.33337 30C8.33337 15.431 17.0403 2.98849 29.0518 0.459752C29.4828 0.373545 29.9138 0.660901 30.0288 1.09194C30.115 1.52297 29.8276 1.954 29.3966 2.06895C18.1322 4.45401 9.9713 16.2069 9.9713 30C9.9713 44.023 18.6495 56.0919 30.1437 58.0747C30.5748 58.1609 30.8908 58.5632 30.8046 59.023C30.7184 59.4253 30.3736 59.6839 30 59.6839Z" fill="#4B4575"/>
<path d="M30.0001 19.1379C21.9829 19.1379 14.4541 16.0058 8.79321 10.3448L9.94264 9.19541C15.2875 14.5402 22.4139 17.5 30.0001 17.5C37.6725 17.5 44.8852 14.4828 50.2587 8.99426L51.4082 10.1437C45.7185 15.9483 38.1036 19.1379 30.0001 19.1379Z" fill="#4B4575"/>
<path d="M9.74134 51.0057L8.59192 49.8563C14.2816 44.0517 21.8965 40.862 30 40.862C38.0172 40.862 45.5459 43.9942 51.2069 49.6551L50.0574 50.8045C44.7126 45.4597 37.5862 42.4999 30 42.4999C22.2988 42.4999 15.1149 45.5172 9.74134 51.0057Z" fill="#4B4575"/>
<path d="M59.1666 29.1667H0.804565V30.8046H59.1666V29.1667Z" fill="#4B4575"/>
<path d="M30 60C29.5403 60 29.1954 59.6264 29.1954 59.1954V0.804598C29.1954 0.344828 29.569 0 30 0C30.4598 0 30.8046 0.373563 30.8046 0.804598V59.1667C30.8046 59.6264 30.4598 60 30 60Z" fill="#4B4575"/>
</svg>
