<svg width="1440" height="637" viewBox="0 0 1440 637" fill="none" xmlns="http://www.w3.org/2000/svg">
<mask id="mask0" mask-type="alpha" maskUnits="userSpaceOnUse" x="0" y="0" width="1440" height="637">
<rect width="1440" height="637" fill="#47416F"/>
<rect width="1440" height="637" fill="url(#paint0_linear)"/>
</mask>
<g mask="url(#mask0)">
<rect width="1440" height="637" fill="#47416F"/>
<rect width="1440" height="637" fill="url(#paint1_linear)"/>
<path d="M1063.31 267.618C1063.31 77.257 915.614 -75.3579 723.607 -75.3579C531.6 -75.3579 375.693 78.9029 375.693 270.91C375.693 380.856 429.852 477.683 506.974 541.685L526.662 674.612C526.662 695.946 531.584 709.082 552.919 709.082C552.919 709.082 559.486 709.082 567.685 709.082C575.883 709.082 582.451 700.884 582.451 687.748C582.451 674.612 592.295 664.768 605.431 664.768C618.567 664.768 628.411 677.904 628.411 689.378C628.411 700.868 643.177 712.358 661.235 712.358C679.293 712.358 694.059 702.514 694.059 689.378C694.059 676.242 705.549 666.398 720.315 666.398C735.081 666.398 746.571 676.242 746.571 689.378C746.571 702.514 761.337 712.358 779.395 712.358C797.453 712.358 812.219 702.514 812.219 689.378C812.219 676.242 822.064 666.398 835.199 666.398C848.335 666.398 858.179 674.596 858.179 687.732C858.179 700.868 864.747 709.066 872.946 709.066H887.712C909.046 709.066 915.614 695.93 915.614 674.596L928.75 543.315C1012.42 479.329 1063.31 380.856 1063.31 267.618ZM572.622 438.291C508.62 438.291 457.754 385.778 457.754 323.422C457.754 303.734 462.676 287.322 470.89 270.91C475.812 261.066 493.87 261.066 493.87 261.066L669.464 277.478C669.464 277.478 677.663 279.124 680.954 284.046C684.231 297.182 687.522 310.302 687.522 323.438C687.491 387.424 636.625 438.291 572.622 438.291ZM743.295 554.805C733.451 554.805 723.607 548.237 718.685 538.393C713.763 548.237 705.549 554.805 694.075 554.805C677.663 554.805 664.542 540.039 664.542 521.981C664.542 515.413 667.819 507.215 671.11 502.293C671.11 502.293 682.6 490.803 695.721 476.037C708.857 461.271 730.191 461.271 743.311 476.037L766.291 502.293C771.213 507.215 772.859 513.783 772.859 521.981C772.827 540.039 759.707 554.805 743.295 554.805ZM881.144 441.583C817.142 441.583 766.275 389.07 766.275 326.714C766.275 311.948 769.551 300.458 772.843 287.322C774.489 280.754 782.687 279.124 782.687 279.124L958.282 262.712C958.282 262.712 976.34 261.066 981.262 272.556C989.46 288.968 994.398 305.38 996.028 326.714C996.013 390.7 943.5 441.583 881.144 441.583ZM998.191 -7.45245C1022.19 16.954 1042.49 44.2134 1058.98 73.5262L1102.09 30.4191C1136.89 65.2183 1193.3 65.2183 1228.12 30.4191C1262.92 -4.38008 1262.92 -60.7955 1228.12 -95.6104C1209.18 -114.53 1183.9 -122.807 1159.13 -121.13C1160.79 -145.897 1152.53 -171.197 1133.59 -190.117C1098.8 -224.916 1042.38 -224.916 1007.57 -190.117C972.766 -155.318 972.766 -98.9022 1007.57 -64.0873L973.66 -30.1816C982.109 -22.9867 990.322 -15.4469 998.191 -7.45245ZM1102.09 606.565L1017.44 521.919C1003.83 538.017 988.833 553.081 972.5 566.969L963.502 657.008L1007.57 701.072C972.766 735.871 972.766 792.302 1007.57 827.101C1042.36 861.9 1098.78 861.9 1133.59 827.101C1152.53 808.165 1160.78 782.881 1159.11 758.114C1183.88 759.776 1209.18 751.515 1228.1 732.595C1262.9 697.796 1262.9 641.38 1228.1 606.565C1193.3 571.766 1136.89 571.766 1102.09 606.565ZM336.913 30.4191L381.948 75.4543C399.128 45.7339 420.274 18.0513 445.292 -6.80976C452.612 -14.0831 460.215 -20.9175 467.99 -27.5325L431.435 -64.0873C466.234 -98.8865 466.234 -155.302 431.435 -190.117C396.636 -224.916 340.22 -224.916 305.405 -190.117C286.47 -171.181 278.209 -145.897 279.87 -121.13C255.103 -122.791 229.803 -114.53 210.883 -95.6104C176.084 -60.8112 176.084 -4.38008 210.883 30.4191C245.682 65.2183 302.114 65.2183 336.913 30.4191ZM464.055 565.245C448.85 551.529 434.836 536.873 422.03 521.448L336.913 606.565C302.114 571.766 245.698 571.766 210.883 606.565C176.084 641.364 176.084 697.78 210.883 732.595C229.803 751.515 255.103 759.791 279.87 758.114C278.209 782.881 286.47 808.181 305.39 827.101C340.189 861.9 396.62 861.9 431.419 827.101C466.218 792.302 466.218 735.887 431.419 701.072L477.363 655.127L464.055 565.245Z" stroke="white" stroke-opacity="0.2" stroke-miterlimit="10"/>
</g>
<defs>
<linearGradient id="paint0_linear" x1="1.84364e-06" y1="557.94" x2="1447.41" y2="125.71" gradientUnits="userSpaceOnUse">
<stop stop-color="#484271"/>
<stop offset="1" stop-color="#514B7B"/>
</linearGradient>
<linearGradient id="paint1_linear" x1="1.84364e-06" y1="557.94" x2="1447.41" y2="125.71" gradientUnits="userSpaceOnUse">
<stop stop-color="#484271"/>
<stop offset="1" stop-color="#514B7B"/>
</linearGradient>
</defs>
</svg>
