<svg width="60" height="60" viewBox="0 0 60 60" fill="none" xmlns="http://www.w3.org/2000/svg">
<g clip-path="url(#clip0)">
<path d="M30 0C16.8639 0 6.17751 9.36024 6.17751 20.9055V28.6417C2.52071 30.0886 0 33.189 0 36.7913C0 41.5748 4.47337 45.4724 10.1183 45.7972C10.6864 47.3032 12.3905 48.3957 14.3787 48.3957C16.8639 48.3957 18.8876 46.7126 18.8876 44.6457V28.6713C18.8876 26.6043 16.8639 24.9213 14.3787 24.9213C12.284 24.9213 10.5089 26.1319 10.0118 27.7559C9.40828 27.815 8.80473 27.9035 8.20118 28.0217V20.9055C8.20118 10.3051 17.9645 1.68307 30 1.68307C42.0355 1.68307 51.7988 10.3051 51.7988 20.9055V28.0512C51.1953 27.9331 50.5917 27.8445 49.9882 27.7854C49.4911 26.1614 47.7515 24.9508 45.6213 24.9508C43.1361 24.9508 41.1124 26.6339 41.1124 28.7008V44.7047C41.1124 46.7717 43.1361 48.4547 45.6213 48.4547C47.6095 48.4547 49.3136 47.3622 49.8817 45.8563C51.7633 45.7382 53.503 45.2362 54.9941 44.439V51.998C54.9941 53.622 54.213 55.2165 52.8284 56.3386C51.2663 57.6378 48.071 58.7303 45.2663 58.2874C43.0296 57.9331 41.3254 56.6339 40.1893 54.4783C40.9349 53.9469 41.3964 53.1496 41.3964 52.2933C41.3964 50.6693 39.8343 49.3701 37.8817 49.3701C35.929 49.3701 34.3669 50.6693 34.3669 52.2933C34.3669 53.9173 35.9645 55.2165 37.8817 55.2165C38.0592 55.2165 38.2012 55.187 38.3432 55.187C40.1183 58.4941 42.8521 59.6161 44.8757 59.9409C45.4438 60.0295 46.0473 60.0886 46.6154 60.0886C49.5976 60.0886 52.5799 58.937 54.2485 57.5492C55.9882 56.1024 56.9822 54.0945 56.9822 52.0276V43.3169C56.9822 43.2579 56.9467 43.1693 56.9467 43.1102C58.8284 41.4862 59.9645 39.3012 59.9645 36.8799C59.9645 33.2776 57.4438 30.1772 53.7515 28.7303V20.9055C53.8225 9.36024 43.1361 0 30 0ZM11.8935 28.6713C11.8935 27.5197 12.9941 26.6043 14.3787 26.6043C15.7633 26.6043 16.8639 27.5197 16.8639 28.6713V44.6752C16.8639 45.8268 15.7633 46.7421 14.3787 46.7421C12.9941 46.7421 11.8935 45.8268 11.8935 44.6752V28.6713V28.6713ZM9.86982 29.4685V44.1142C5.46746 43.7008 1.98817 40.5709 1.98817 36.7913C2.02367 33.0118 5.46746 29.8819 9.86982 29.4685ZM48.1065 44.6752C48.1065 45.8268 47.0059 46.7421 45.6213 46.7421C44.2367 46.7421 43.1361 45.8268 43.1361 44.6752V28.6713C43.1361 27.5197 44.2367 26.6043 45.6213 26.6043C47.0059 26.6043 48.1065 27.5197 48.1065 28.6713V44.6752ZM37.9172 53.4744C37.1006 53.4744 36.3905 52.9134 36.3905 52.2047C36.3905 51.4961 37.0651 50.935 37.9172 50.935C38.7337 50.935 39.4438 51.4961 39.4438 52.2047C39.4438 52.9134 38.7692 53.4744 37.9172 53.4744ZM58.0118 36.7913C58.0118 40.5709 54.568 43.7008 50.1302 44.1142V29.4685C54.568 29.8819 58.0118 33.0118 58.0118 36.7913Z" fill="#4E4878"/>
</g>
<defs>
<clipPath id="clip0">
<rect width="60" height="60" fill="white"/>
</clipPath>
</defs>
</svg>
