<svg width="54" height="60" viewBox="0 0 54 60" fill="none" xmlns="http://www.w3.org/2000/svg">
<rect width="54" height="60" fill="#E5E5E5"/>
<g clip-path="url(#clip0)">
<rect width="1440" height="3199" transform="translate(-540 -1285)" fill="#141325"/>
<mask id="mask0" mask-type="alpha" maskUnits="userSpaceOnUse" x="-540" y="-228" width="1440" height="637">
<rect x="-540" y="-228" width="1440" height="637" fill="#47416F"/>
<rect x="-540" y="-228" width="1440" height="637" fill="url(#paint0_linear)"/>
</mask>
<g mask="url(#mask0)">
<rect x="-540" y="-228" width="1440" height="637" fill="#47416F"/>
<rect x="-540" y="-228" width="1440" height="637" fill="url(#paint1_linear)"/>
<path d="M523.307 39.6179C523.307 -150.743 375.614 -303.358 183.607 -303.358C-8.39994 -303.358 -164.307 -149.097 -164.307 42.9098C-164.307 152.856 -110.148 249.683 -33.0259 313.685L-13.3376 446.612C-13.3376 467.946 -8.41559 481.082 12.9185 481.082C12.9185 481.082 19.4865 481.082 27.6846 481.082C35.8828 481.082 42.4508 472.884 42.4508 459.748C42.4508 446.612 52.2949 436.768 65.4308 436.768C78.5667 436.768 88.4108 449.904 88.4108 461.378C88.4108 472.868 103.177 484.358 121.235 484.358C139.293 484.358 154.059 474.514 154.059 461.378C154.059 448.242 165.549 438.398 180.315 438.398C195.081 438.398 206.571 448.242 206.571 461.378C206.571 474.514 221.337 484.358 239.395 484.358C257.453 484.358 272.219 474.514 272.219 461.378C272.219 448.242 282.064 438.398 295.199 438.398C308.335 438.398 318.179 446.596 318.179 459.732C318.179 472.868 324.747 481.066 332.946 481.066H347.712C369.046 481.066 375.614 467.93 375.614 446.596L388.75 315.315C472.425 251.329 523.307 152.856 523.307 39.6179ZM32.6224 210.291C-31.3799 210.291 -82.2463 157.778 -82.2463 95.4221C-82.2463 75.7339 -77.3243 59.3218 -69.1104 42.9098C-64.1884 33.0657 -46.1304 33.0657 -46.1304 33.0657L129.464 49.4777C129.464 49.4777 137.663 51.1236 140.954 56.0457C144.231 69.1816 147.522 82.3018 147.522 95.4377C147.491 159.424 96.6247 210.291 32.6224 210.291ZM203.295 326.805C193.451 326.805 183.607 320.237 178.685 310.393C173.763 320.237 165.549 326.805 154.075 326.805C137.663 326.805 124.542 312.039 124.542 293.981C124.542 287.413 127.819 279.215 131.11 274.293C131.11 274.293 142.6 262.803 155.721 248.037C168.857 233.271 190.191 233.271 203.311 248.037L226.291 274.293C231.213 279.215 232.859 285.783 232.859 293.981C232.827 312.039 219.707 326.805 203.295 326.805ZM341.144 213.583C277.142 213.583 226.275 161.07 226.275 98.7138C226.275 83.9477 229.551 72.4577 232.843 59.3218C234.489 52.7539 242.687 51.1236 242.687 51.1236L418.282 34.7116C418.282 34.7116 436.34 33.0657 441.262 44.5557C449.46 60.9677 454.398 77.3797 456.028 98.7138C456.013 162.7 403.5 213.583 341.144 213.583ZM458.191 -235.452C482.19 -211.046 502.49 -183.787 518.98 -154.474L562.087 -197.581C596.887 -162.782 653.302 -162.782 688.117 -197.581C722.916 -232.38 722.916 -288.796 688.117 -323.61C669.181 -342.53 643.897 -350.807 619.13 -349.13C620.791 -373.897 612.53 -399.197 593.595 -418.117C558.795 -452.916 502.38 -452.916 467.565 -418.117C432.766 -383.318 432.766 -326.902 467.565 -292.087L433.66 -258.182C442.109 -250.987 450.322 -243.447 458.191 -235.452ZM562.087 378.565L477.441 293.919C463.834 310.017 448.833 325.081 432.5 338.969L423.502 429.008L467.565 473.072C432.766 507.871 432.766 564.302 467.565 599.101C502.364 633.9 558.78 633.9 593.595 599.101C612.53 580.165 620.776 554.881 619.114 530.114C643.881 531.776 669.181 523.515 688.101 504.595C722.9 469.796 722.9 413.38 688.101 378.565C653.302 343.766 596.887 343.766 562.087 378.565ZM-203.087 -197.581L-158.052 -152.546C-140.872 -182.266 -119.726 -209.949 -94.7082 -234.81C-87.3878 -242.083 -79.7853 -248.918 -72.0103 -255.533L-108.565 -292.087C-73.766 -326.887 -73.766 -383.302 -108.565 -418.117C-143.364 -452.916 -199.78 -452.916 -234.595 -418.117C-253.53 -399.181 -261.791 -373.897 -260.13 -349.13C-284.897 -350.791 -310.197 -342.53 -329.117 -323.61C-363.916 -288.811 -363.916 -232.38 -329.117 -197.581C-294.318 -162.782 -237.886 -162.782 -203.087 -197.581ZM-75.9448 337.245C-91.1499 323.529 -105.164 308.873 -117.97 293.448L-203.087 378.565C-237.886 343.766 -294.302 343.766 -329.117 378.565C-363.916 413.364 -363.916 469.78 -329.117 504.595C-310.197 523.515 -284.897 531.791 -260.13 530.114C-261.791 554.881 -253.53 580.181 -234.61 599.101C-199.811 633.9 -143.38 633.9 -108.581 599.101C-73.7817 564.302 -73.7817 507.887 -108.581 473.072L-62.6365 427.127L-75.9448 337.245Z" stroke="white" stroke-opacity="0.2" stroke-miterlimit="10"/>
</g>
<rect x="-103" y="-39" width="260" height="330" rx="10" fill="#F7F7F7"/>
<path d="M26.6471 58.9281C18.9833 55.7891 12.3387 50.9806 7.73441 43.0003C3.17516 35.0981 0.559062 23.9868 1.06128 8.10233C10.2912 8.35885 18.939 6.40762 26.6661 1.21068C34.4147 6.42349 43.0624 8.36119 52.2668 8.10264C52.7683 24.0358 50.1277 35.171 45.5327 43.081C40.9248 51.0134 34.2928 55.8032 26.6471 58.9281Z" stroke="#4B4575" stroke-width="2"/>
<path d="M26.2748 29.8593V5C33.5279 8.75879 41.0779 11.1508 48.84 11.5352C48.6703 17.6432 47.822 23.7513 46.592 29.8593H26.2748V56C17.4947 50.6608 9.73259 43.5276 6 29.8593H26.2748Z" fill="#4D4776"/>
</g>
<defs>
<linearGradient id="paint0_linear" x1="-540" y1="329.94" x2="907.41" y2="-102.29" gradientUnits="userSpaceOnUse">
<stop stop-color="#484271"/>
<stop offset="1" stop-color="#514B7B"/>
</linearGradient>
<linearGradient id="paint1_linear" x1="-540" y1="329.94" x2="907.41" y2="-102.29" gradientUnits="userSpaceOnUse">
<stop stop-color="#484271"/>
<stop offset="1" stop-color="#514B7B"/>
</linearGradient>
<clipPath id="clip0">
<rect width="1440" height="3199" fill="white" transform="translate(-540 -1285)"/>
</clipPath>
</defs>
</svg>
